<svg xmlns="http://www.w3.org/2000/svg" width="375" viewBox="0 0 375 375" height="375" version="1.0"><path fill="#EEB900" d="M 341.347656 110.785156 L 33.890625 110.785156 C 29.445312 110.785156 25.78125 107.121094 25.78125 102.679688 L 25.78125 66.695312 C 25.78125 62.253906 29.445312 58.589844 33.890625 58.589844 L 341.234375 58.589844 C 345.679688 58.589844 349.34375 62.253906 349.34375 66.695312 L 349.34375 102.570312 C 349.457031 107.121094 345.789062 110.785156 341.347656 110.785156"/><path fill="#EEB900" d="M 341.347656 61.03125 C 344.457031 61.03125 347.011719 63.585938 347.011719 66.695312 L 347.011719 102.679688 C 347.011719 105.789062 344.457031 108.34375 341.347656 108.34375 L 33.890625 108.34375 C 30.777344 108.34375 28.222656 105.789062 28.222656 102.679688 L 28.222656 66.695312 C 28.222656 63.585938 30.777344 61.03125 33.890625 61.03125 L 341.347656 61.03125 M 341.347656 55.8125 L 33.890625 55.8125 C 27.890625 55.8125 23.003906 60.699219 23.003906 66.695312 L 23.003906 102.679688 C 23.003906 108.675781 27.890625 113.5625 33.890625 113.5625 L 341.347656 113.5625 C 347.34375 113.5625 352.230469 108.675781 352.230469 102.679688 L 352.230469 66.695312 C 352.230469 60.699219 347.34375 55.8125 341.347656 55.8125"/><path fill="#EEB900" d="M 341.347656 213.613281 L 33.890625 213.613281 C 29.445312 213.613281 25.78125 209.949219 25.78125 205.507812 L 25.78125 169.523438 C 25.78125 165.082031 29.445312 161.417969 33.890625 161.417969 L 341.234375 161.417969 C 345.679688 161.417969 349.34375 165.082031 349.34375 169.523438 L 349.34375 205.394531 C 349.457031 209.949219 345.789062 213.613281 341.347656 213.613281"/><path fill="#EEB900" d="M 341.347656 163.859375 C 344.457031 163.859375 347.011719 166.414062 347.011719 169.523438 L 347.011719 205.507812 C 347.011719 208.617188 344.457031 211.171875 341.347656 211.171875 L 33.890625 211.171875 C 30.777344 211.171875 28.222656 208.617188 28.222656 205.507812 L 28.222656 169.523438 C 28.222656 166.414062 30.777344 163.859375 33.890625 163.859375 L 341.347656 163.859375 M 341.347656 158.640625 L 33.890625 158.640625 C 27.890625 158.640625 23.003906 163.527344 23.003906 169.523438 L 23.003906 205.507812 C 23.003906 211.503906 27.890625 216.390625 33.890625 216.390625 L 341.347656 216.390625 C 347.34375 216.390625 352.230469 211.503906 352.230469 205.507812 L 352.230469 169.523438 C 352.230469 163.527344 347.34375 158.640625 341.347656 158.640625"/><path fill="#EEB900" d="M 341.347656 315.722656 L 33.890625 315.722656 C 29.445312 315.722656 25.78125 312.058594 25.78125 307.613281 L 25.78125 271.632812 C 25.78125 267.191406 29.445312 263.523438 33.890625 263.523438 L 341.234375 263.523438 C 345.679688 263.523438 349.34375 267.191406 349.34375 271.632812 L 349.34375 307.503906 C 349.457031 312.058594 345.789062 315.722656 341.347656 315.722656"/><path fill="#EEB900" d="M 341.347656 265.96875 C 344.457031 265.96875 347.011719 268.523438 347.011719 271.632812 L 347.011719 307.613281 C 347.011719 310.722656 344.457031 313.277344 341.347656 313.277344 L 33.890625 313.277344 C 30.777344 313.277344 28.222656 310.722656 28.222656 307.613281 L 28.222656 271.632812 C 28.222656 268.523438 30.777344 265.96875 33.890625 265.96875 L 341.347656 265.96875 M 341.347656 260.75 L 33.890625 260.75 C 27.890625 260.75 23.003906 265.632812 23.003906 271.632812 L 23.003906 307.613281 C 23.003906 313.613281 27.890625 318.5 33.890625 318.5 L 341.347656 318.5 C 347.34375 318.5 352.230469 313.613281 352.230469 307.613281 L 352.230469 271.632812 C 352.230469 265.632812 347.34375 260.75 341.347656 260.75"/></svg>